<?xml version="1.0" encoding="us-ascii" standalone="no"?><svg xmlns="http://www.w3.org/2000/svg" xmlns:xlink="http://www.w3.org/1999/xlink" contentStyleType="text/css" height="402px" preserveAspectRatio="none" style="width:391px;height:402px;background:#FFFFFF;" version="1.1" viewBox="0 0 391 402" width="391px" zoomAndPan="magnify"><defs><filter height="300%" id="ffa2dzk54o7wg" width="300%" x="-1" y="-1"><feGaussianBlur result="blurOut" stdDeviation="2.0"/><feColorMatrix in="blurOut" result="blurOut2" type="matrix" values="0 0 0 0 0 0 0 0 0 0 0 0 0 0 0 0 0 0 .4 0"/><feOffset dx="4.0" dy="4.0" in="blurOut2" result="blurOut3"/><feBlend in="SourceGraphic" in2="blurOut3" mode="normal"/></filter></defs><g><!--cluster ex4--><g id="cluster_ex4"><polygon fill="none" filter="url(#ffa2dzk54o7wg)" points="16,6,51,6,58,28.2969,374,28.2969,374,393,16,393,16,6" style="stroke:#000000;stroke-width:1.5;"/><line style="stroke:#000000;stroke-width:1.5;" x1="16" x2="58" y1="28.2969" y2="28.2969"/><text fill="#000000" font-family="sans-serif" font-size="14" font-weight="bold" lengthAdjust="spacing" textLength="29" x="20" y="20.9951">ex4</text></g><!--class DirectoryBrowser--><g id="elem_DirectoryBrowser"><rect codeLine="5" fill="#FEFECE" filter="url(#ffa2dzk54o7wg)" height="178.375" id="DirectoryBrowser" style="stroke:#A80036;stroke-width:1.0;" width="326" x="32" y="41"/><ellipse cx="131.25" cy="57" fill="#ADD1B2" rx="11" ry="11" style="stroke:#A80036;stroke-width:1.0;"/><path d="M134.2188,62.6406 Q133.6406,62.9375 133,63.0781 Q132.3594,63.2344 131.6563,63.2344 Q129.1563,63.2344 127.8281,61.5938 Q126.5156,59.9375 126.5156,56.8125 Q126.5156,53.6875 127.8281,52.0313 Q129.1563,50.375 131.6563,50.375 Q132.3594,50.375 133,50.5313 Q133.6563,50.6875 134.2188,50.9844 L134.2188,53.7031 Q133.5938,53.125 133,52.8594 Q132.4063,52.5781 131.7813,52.5781 Q130.4375,52.5781 129.75,53.6563 Q129.0625,54.7188 129.0625,56.8125 Q129.0625,58.9063 129.75,59.9844 Q130.4375,61.0469 131.7813,61.0469 Q132.4063,61.0469 133,60.7813 Q133.5938,60.5 134.2188,59.9219 L134.2188,62.6406 Z " fill="#000000"/><text fill="#000000" font-family="sans-serif" font-size="14" lengthAdjust="spacing" textLength="119" x="151.75" y="61.8467">DirectoryBrowser</text><line style="stroke:#A80036;stroke-width:1.0;" x1="33" x2="357" y1="73" y2="73"/><rect fill="none" height="6" style="stroke:#C82930;stroke-width:1.0;" width="6" x="40" y="83.6484"/><text fill="#000000" font-family="sans-serif" font-size="14" lengthAdjust="spacing" textLength="96" x="52" y="89.9951">directory : File</text><rect fill="none" height="6" style="stroke:#C82930;stroke-width:1.0;" width="6" x="40" y="99.9453"/><text fill="#000000" font-family="sans-serif" font-size="14" lengthAdjust="spacing" textLength="91" x="52" y="106.292">fileCount : int</text><rect fill="none" height="6" style="stroke:#C82930;stroke-width:1.0;" width="6" x="40" y="116.2422"/><text fill="#000000" font-family="sans-serif" font-size="14" lengthAdjust="spacing" textLength="136" x="52" y="122.5889">fileList : StringBuffer</text><line style="stroke:#A80036;stroke-width:1.0;" x1="33" x2="357" y1="129.8906" y2="129.8906"/><ellipse cx="43" cy="143.5391" fill="#84BE84" rx="3" ry="3" style="stroke:#038048;stroke-width:1.0;"/><text fill="#000000" font-family="sans-serif" font-size="14" lengthAdjust="spacing" textLength="225" x="52" y="146.8857">DirectoryBrowser(directory : File)</text><ellipse cx="43" cy="159.8359" fill="#84BE84" rx="3" ry="3" style="stroke:#038048;stroke-width:1.0;"/><text fill="#000000" font-family="sans-serif" font-size="14" lengthAdjust="spacing" textLength="102" x="52" y="163.1826">browse() : void</text><ellipse cx="43" cy="176.1328" fill="#84BE84" rx="3" ry="3" style="stroke:#038048;stroke-width:1.0;"/><text fill="#000000" font-family="sans-serif" font-size="14" lengthAdjust="spacing" textLength="128" x="52" y="179.4795">getFileCount() : int</text><ellipse cx="43" cy="192.4297" fill="#84BE84" rx="3" ry="3" style="stroke:#038048;stroke-width:1.0;"/><text fill="#000000" font-family="sans-serif" font-size="14" lengthAdjust="spacing" textLength="132" x="52" y="195.7764">getFileList() : String</text><rect fill="#F24D5C" height="6" style="stroke:#C82930;stroke-width:1.0;" width="6" x="40" y="205.7266"/><text fill="#000000" font-family="sans-serif" font-size="14" lengthAdjust="spacing" textLength="300" x="52" y="212.0732">recursivelyBrowse(dir : File, indent : int) : int</text></g><!--class DirectoryBrowserTest--><g id="elem_DirectoryBrowserTest"><rect codeLine="16" fill="#FEFECE" filter="url(#ffa2dzk54o7wg)" height="80.5938" id="DirectoryBrowserTest" style="stroke:#A80036;stroke-width:1.0;" width="284" x="53" y="296"/><ellipse cx="115.75" cy="312" fill="#ADD1B2" rx="11" ry="11" style="stroke:#A80036;stroke-width:1.0;"/><path d="M118.7188,317.6406 Q118.1406,317.9375 117.5,318.0781 Q116.8594,318.2344 116.1563,318.2344 Q113.6563,318.2344 112.3281,316.5938 Q111.0156,314.9375 111.0156,311.8125 Q111.0156,308.6875 112.3281,307.0313 Q113.6563,305.375 116.1563,305.375 Q116.8594,305.375 117.5,305.5313 Q118.1563,305.6875 118.7188,305.9844 L118.7188,308.7031 Q118.0938,308.125 117.5,307.8594 Q116.9063,307.5781 116.2813,307.5781 Q114.9375,307.5781 114.25,308.6563 Q113.5625,309.7188 113.5625,311.8125 Q113.5625,313.9063 114.25,314.9844 Q114.9375,316.0469 116.2813,316.0469 Q116.9063,316.0469 117.5,315.7813 Q118.0938,315.5 118.7188,314.9219 L118.7188,317.6406 Z " fill="#000000"/><text fill="#000000" font-family="sans-serif" font-size="14" lengthAdjust="spacing" textLength="150" x="136.25" y="316.8467">DirectoryBrowserTest</text><line style="stroke:#A80036;stroke-width:1.0;" x1="54" x2="336" y1="328" y2="328"/><rect fill="none" height="6" style="stroke:#C82930;stroke-width:1.0;" width="6" x="61" y="338.6484"/><text fill="#000000" font-family="sans-serif" font-size="14" lengthAdjust="spacing" textLength="258" x="73" y="344.9951">tempDir : java.nio.file.Path &#171;TempDir&#187;</text><line style="stroke:#A80036;stroke-width:1.0;" x1="54" x2="336" y1="352.2969" y2="352.2969"/><ellipse cx="64" cy="365.9453" fill="#84BE84" rx="3" ry="3" style="stroke:#038048;stroke-width:1.0;"/><text fill="#000000" font-family="sans-serif" font-size="14" lengthAdjust="spacing" textLength="192" x="73" y="369.292">testBrowseDirectory() : void</text></g><!--reverse link DirectoryBrowser to DirectoryBrowserTest--><g id="link_DirectoryBrowser_DirectoryBrowserTest"><path codeLine="22" d="M195,224.23 C195,249.39 195,275.28 195,295.75 " fill="none" id="DirectoryBrowser-backto-DirectoryBrowserTest" style="stroke:#A80036;stroke-width:1.0;"/><polygon fill="#A80036" points="195,219.21,191,228.21,195,224.21,199,228.21,195,219.21" style="stroke:#A80036;stroke-width:1.0;"/><text fill="#000000" font-family="sans-serif" font-size="13" lengthAdjust="spacing" textLength="32" x="196" y="262.0669">tests</text></g><!--SRC=[VP5DZi8m38NtEON52iIqArQeOi4WLhD0WWk4rkqOEWbAqW92t1qtRSFVYEpYptdlsR5xKc2qHI4ECjtB0c60fya0BWBufAMq5XPaC7NQdET67osQ3W94aFK8fh2a4WF8-VAjA-KOa79FzH-oJNdj3AbYNkKvcewFtxo6hmwZqBhr7SCHWrfJ5ke5kcNlxkdTFy0cWcTjY12FlIfZgSQo2z3uTyvVB9HXFz6Zy5LysDO6UThxnXp-7HPUSoTh6IlISREJU2NTBoJ9fiMpMKZi-7qh5PIVPxuAzd_xeoIA_eyozOfMt000]--></g></svg>