<?xml version="1.0" encoding="us-ascii" standalone="no"?><svg xmlns="http://www.w3.org/2000/svg" xmlns:xlink="http://www.w3.org/1999/xlink" contentStyleType="text/css" height="369px" preserveAspectRatio="none" style="width:505px;height:369px;background:#FFFFFF;" version="1.1" viewBox="0 0 505 369" width="505px" zoomAndPan="magnify"><defs><filter height="300%" id="f15btzfqqu6nhc" width="300%" x="-1" y="-1"><feGaussianBlur result="blurOut" stdDeviation="2.0"/><feColorMatrix in="blurOut" result="blurOut2" type="matrix" values="0 0 0 0 0 0 0 0 0 0 0 0 0 0 0 0 0 0 .4 0"/><feOffset dx="4.0" dy="4.0" in="blurOut2" result="blurOut3"/><feBlend in="SourceGraphic" in2="blurOut3" mode="normal"/></filter></defs><g><!--cluster ex1--><g id="cluster_ex1"><polygon fill="none" filter="url(#f15btzfqqu6nhc)" points="16,6,51,6,58,28.2969,488,28.2969,488,360,16,360,16,6" style="stroke:#000000;stroke-width:1.5;"/><line style="stroke:#000000;stroke-width:1.5;" x1="16" x2="58" y1="28.2969" y2="28.2969"/><text fill="#000000" font-family="sans-serif" font-size="14" font-weight="bold" lengthAdjust="spacing" textLength="29" x="20" y="20.9951">ex1</text></g><!--class TextFileLineNumberer--><g id="elem_TextFileLineNumberer"><rect codeLine="4" fill="#FEFECE" filter="url(#f15btzfqqu6nhc)" height="129.4844" id="TextFileLineNumberer" style="stroke:#A80036;stroke-width:1.0;" width="440" x="32" y="41"/><ellipse cx="172.75" cy="57" fill="#ADD1B2" rx="11" ry="11" style="stroke:#A80036;stroke-width:1.0;"/><path d="M175.7188,62.6406 Q175.1406,62.9375 174.5,63.0781 Q173.8594,63.2344 173.1563,63.2344 Q170.6563,63.2344 169.3281,61.5938 Q168.0156,59.9375 168.0156,56.8125 Q168.0156,53.6875 169.3281,52.0313 Q170.6563,50.375 173.1563,50.375 Q173.8594,50.375 174.5,50.5313 Q175.1563,50.6875 175.7188,50.9844 L175.7188,53.7031 Q175.0938,53.125 174.5,52.8594 Q173.9063,52.5781 173.2813,52.5781 Q171.9375,52.5781 171.25,53.6563 Q170.5625,54.7188 170.5625,56.8125 Q170.5625,58.9063 171.25,59.9844 Q171.9375,61.0469 173.2813,61.0469 Q173.9063,61.0469 174.5,60.7813 Q175.0938,60.5 175.7188,59.9219 L175.7188,62.6406 Z " fill="#000000"/><text fill="#000000" font-family="sans-serif" font-size="14" lengthAdjust="spacing" textLength="150" x="193.25" y="61.8467">TextFileLineNumberer</text><line style="stroke:#A80036;stroke-width:1.0;" x1="33" x2="471" y1="73" y2="73"/><rect fill="none" height="6" style="stroke:#C82930;stroke-width:1.0;" width="6" x="40" y="83.6484"/><text fill="#000000" font-family="sans-serif" font-size="14" lengthAdjust="spacing" textLength="112" x="52" y="89.9951">fileName : String</text><rect fill="none" height="6" style="stroke:#C82930;stroke-width:1.0;" width="6" x="40" y="99.9453"/><text fill="#000000" font-family="sans-serif" font-size="14" lengthAdjust="spacing" textLength="134" x="52" y="106.292">maxLineLength : int</text><line style="stroke:#A80036;stroke-width:1.0;" x1="33" x2="471" y1="113.5938" y2="113.5938"/><ellipse cx="43" cy="127.2422" fill="#84BE84" rx="3" ry="3" style="stroke:#038048;stroke-width:1.0;"/><text fill="#000000" font-family="sans-serif" font-size="14" lengthAdjust="spacing" textLength="414" x="52" y="130.5889">TextFileLineNumberer(fileName : String, maxLineLength : int)</text><ellipse cx="43" cy="143.5391" fill="#84BE84" rx="3" ry="3" style="stroke:#038048;stroke-width:1.0;"/><text fill="#000000" font-family="sans-serif" font-size="14" lengthAdjust="spacing" textLength="272" x="52" y="146.8857">TextFileLineNumberer(fileName : String)</text><ellipse cx="43" cy="159.8359" fill="#84BE84" rx="3" ry="3" style="stroke:#038048;stroke-width:1.0;"/><text fill="#000000" font-family="sans-serif" font-size="14" lengthAdjust="spacing" textLength="290" x="52" y="163.1826">numberLines() : String throws IOException</text></g><!--class TextFileLineNumbererTest--><g id="elem_TextFileLineNumbererTest"><rect codeLine="12" fill="#FEFECE" filter="url(#f15btzfqqu6nhc)" height="96.8906" id="TextFileLineNumbererTest" style="stroke:#A80036;stroke-width:1.0;" width="286" x="109" y="247"/><ellipse cx="157.25" cy="263" fill="#ADD1B2" rx="11" ry="11" style="stroke:#A80036;stroke-width:1.0;"/><path d="M160.2188,268.6406 Q159.6406,268.9375 159,269.0781 Q158.3594,269.2344 157.6563,269.2344 Q155.1563,269.2344 153.8281,267.5938 Q152.5156,265.9375 152.5156,262.8125 Q152.5156,259.6875 153.8281,258.0313 Q155.1563,256.375 157.6563,256.375 Q158.3594,256.375 159,256.5313 Q159.6563,256.6875 160.2188,256.9844 L160.2188,259.7031 Q159.5938,259.125 159,258.8594 Q158.4063,258.5781 157.7813,258.5781 Q156.4375,258.5781 155.75,259.6563 Q155.0625,260.7188 155.0625,262.8125 Q155.0625,264.9063 155.75,265.9844 Q156.4375,267.0469 157.7813,267.0469 Q158.4063,267.0469 159,266.7813 Q159.5938,266.5 160.2188,265.9219 L160.2188,268.6406 Z " fill="#000000"/><text fill="#000000" font-family="sans-serif" font-size="14" lengthAdjust="spacing" textLength="181" x="177.75" y="267.8467">TextFileLineNumbererTest</text><line style="stroke:#A80036;stroke-width:1.0;" x1="110" x2="394" y1="279" y2="279"/><rect fill="none" height="6" style="stroke:#C82930;stroke-width:1.0;" width="6" x="117" y="289.6484"/><text fill="#000000" font-family="sans-serif" font-size="14" lengthAdjust="spacing" textLength="258" x="129" y="295.9951">tempDir : java.nio.file.Path &#171;TempDir&#187;</text><line style="stroke:#A80036;stroke-width:1.0;" x1="110" x2="394" y1="303.2969" y2="303.2969"/><ellipse cx="120" cy="316.9453" fill="#84BE84" rx="3" ry="3" style="stroke:#038048;stroke-width:1.0;"/><text fill="#000000" font-family="sans-serif" font-size="14" lengthAdjust="spacing" textLength="215" x="129" y="320.292">testNumberLinesSimple() : void</text><ellipse cx="120" cy="333.2422" fill="#84BE84" rx="3" ry="3" style="stroke:#038048;stroke-width:1.0;"/><text fill="#000000" font-family="sans-serif" font-size="14" lengthAdjust="spacing" textLength="260" x="129" y="336.5889">testNumberLinesSplitLongLine() : void</text></g><!--reverse link TextFileLineNumberer to TextFileLineNumbererTest--><g id="link_TextFileLineNumberer_TextFileLineNumbererTest"><path codeLine="19" d="M252,175.2 C252,199.04 252,225.22 252,246.97 " fill="none" id="TextFileLineNumberer-backto-TextFileLineNumbererTest" style="stroke:#A80036;stroke-width:1.0;"/><polygon fill="#A80036" points="252,170.15,248,179.15,252,175.15,256,179.15,252,170.15" style="stroke:#A80036;stroke-width:1.0;"/><text fill="#000000" font-family="sans-serif" font-size="13" lengthAdjust="spacing" textLength="32" x="253" y="213.0669">tests</text></g><!--SRC=[bP7VQy8m4CVVyrSSFYcpXRrAyMaAGka6zX-8tQsUDfUGt5nX-B-RTb8tLXdBM_Z-oESkuKWCtWPKokdgg6k42RQF4_XK44_Lw12Wn5RMr61EZCMxsQ57VpK09F0MfK8RX0LinHFNWs9qssLov5hsKIQMg_OmMZhzLJKVwvZzi-JcvzxJkSDqDkWWUsy_0coULss5JiXodpYhFvPGOf1lYn0qxebyx3teaqwPRDgnf2ywacTP-IKlbmEEn7nnGzgISGtsO2TBhtTjhY79BTVTxQVxh2Bpw7TbIN9tX4N_Gb0N]--></g></svg>