<?xml version="1.0" encoding="us-ascii" standalone="no"?><svg xmlns="http://www.w3.org/2000/svg" xmlns:xlink="http://www.w3.org/1999/xlink" contentStyleType="text/css" height="947px" preserveAspectRatio="none" style="width:1015px;height:947px;background:#FFFFFF;" version="1.1" viewBox="0 0 1015 947" width="1015px" zoomAndPan="magnify"><defs><filter height="300%" id="f1oxdv5njtucmz" width="300%" x="-1" y="-1"><feGaussianBlur result="blurOut" stdDeviation="2.0"/><feColorMatrix in="blurOut" result="blurOut2" type="matrix" values="0 0 0 0 0 0 0 0 0 0 0 0 0 0 0 0 0 0 .4 0"/><feOffset dx="4.0" dy="4.0" in="blurOut2" result="blurOut3"/><feBlend in="SourceGraphic" in2="blurOut3" mode="normal"/></filter></defs><g><text fill="#000000" font-family="sans-serif" font-size="14" font-weight="bold" lengthAdjust="spacing" textLength="376" x="312.5" y="22.9951">Architecture MVC pour la gestion des &#233;tudiants</text><!--cluster ex3--><g id="cluster_ex3"><polygon fill="none" filter="url(#f1oxdv5njtucmz)" points="16,43.2969,51,43.2969,58,65.5938,998,65.5938,998,938.2969,16,938.2969,16,43.2969" style="stroke:#000000;stroke-width:1.5;"/><line style="stroke:#000000;stroke-width:1.5;" x1="16" x2="58" y1="65.5938" y2="65.5938"/><text fill="#000000" font-family="sans-serif" font-size="14" font-weight="bold" lengthAdjust="spacing" textLength="29" x="20" y="58.292">ex3</text></g><!--cluster Mod?le--><g id="cluster_Mod&#232;le"><polygon fill="none" filter="url(#f1oxdv5njtucmz)" points="40,299.2969,103,299.2969,110,321.5938,554,321.5938,554,914.2969,40,914.2969,40,299.2969" style="stroke:#000000;stroke-width:1.5;"/><line style="stroke:#000000;stroke-width:1.5;" x1="40" x2="110" y1="321.5938" y2="321.5938"/><text fill="#000000" font-family="sans-serif" font-size="14" font-weight="bold" lengthAdjust="spacing" textLength="57" x="44" y="314.292">Mod&#232;le</text></g><!--cluster Vue--><g id="cluster_Vue"><polygon fill="none" filter="url(#f1oxdv5njtucmz)" points="578,323.7969,615,323.7969,622,346.0938,974,346.0938,974,552.7969,578,552.7969,578,323.7969" style="stroke:#000000;stroke-width:1.5;"/><line style="stroke:#000000;stroke-width:1.5;" x1="578" x2="622" y1="346.0938" y2="346.0938"/><text fill="#000000" font-family="sans-serif" font-size="14" font-weight="bold" lengthAdjust="spacing" textLength="31" x="582" y="338.792">Vue</text></g><!--cluster Contr?leur--><g id="cluster_Contr&#244;leur"><polygon fill="none" filter="url(#f1oxdv5njtucmz)" points="419,86.2969,510,86.2969,517,108.5938,667,108.5938,667,250.2969,419,250.2969,419,86.2969" style="stroke:#000000;stroke-width:1.5;"/><line style="stroke:#000000;stroke-width:1.5;" x1="419" x2="517" y1="108.5938" y2="108.5938"/><text fill="#000000" font-family="sans-serif" font-size="14" font-weight="bold" lengthAdjust="spacing" textLength="85" x="423" y="101.292">Contr&#244;leur</text></g><!--class Student--><g id="elem_Student"><rect codeLine="7" fill="#FEFECE" filter="url(#f1oxdv5njtucmz)" height="259.8594" id="Student" style="stroke:#A80036;stroke-width:1.0;" width="482" x="56" y="638.2969"/><ellipse cx="265.25" cy="654.2969" fill="#ADD1B2" rx="11" ry="11" style="stroke:#A80036;stroke-width:1.0;"/><path d="M268.2188,659.9375 Q267.6406,660.2344 267,660.375 Q266.3594,660.5313 265.6563,660.5313 Q263.1563,660.5313 261.8281,658.8906 Q260.5156,657.2344 260.5156,654.1094 Q260.5156,650.9844 261.8281,649.3281 Q263.1563,647.6719 265.6563,647.6719 Q266.3594,647.6719 267,647.8281 Q267.6563,647.9844 268.2188,648.2813 L268.2188,651 Q267.5938,650.4219 267,650.1563 Q266.4063,649.875 265.7813,649.875 Q264.4375,649.875 263.75,650.9531 Q263.0625,652.0156 263.0625,654.1094 Q263.0625,656.2031 263.75,657.2813 Q264.4375,658.3438 265.7813,658.3438 Q266.4063,658.3438 267,658.0781 Q267.5938,657.7969 268.2188,657.2188 L268.2188,659.9375 Z " fill="#000000"/><text fill="#000000" font-family="sans-serif" font-size="14" lengthAdjust="spacing" textLength="55" x="285.75" y="659.1436">Student</text><line style="stroke:#A80036;stroke-width:1.0;" x1="57" x2="537" y1="670.2969" y2="670.2969"/><rect fill="none" height="6" style="stroke:#C82930;stroke-width:1.0;" width="6" x="64" y="680.9453"/><text fill="#000000" font-family="sans-serif" font-size="14" lengthAdjust="spacing" textLength="65" x="76" y="687.292">code : int</text><rect fill="none" height="6" style="stroke:#C82930;stroke-width:1.0;" width="6" x="64" y="697.2422"/><text fill="#000000" font-family="sans-serif" font-size="14" lengthAdjust="spacing" textLength="117" x="76" y="703.5889">lastName : String</text><rect fill="none" height="6" style="stroke:#C82930;stroke-width:1.0;" width="6" x="64" y="713.5391"/><text fill="#000000" font-family="sans-serif" font-size="14" lengthAdjust="spacing" textLength="118" x="76" y="719.8857">firstName : String</text><rect fill="none" height="6" style="stroke:#C82930;stroke-width:1.0;" width="6" x="64" y="729.8359"/><text fill="#000000" font-family="sans-serif" font-size="14" lengthAdjust="spacing" textLength="140" x="76" y="736.1826">meanScore : double</text><line style="stroke:#A80036;stroke-width:1.0;" x1="57" x2="537" y1="743.4844" y2="743.4844"/><ellipse cx="67" cy="757.1328" fill="#84BE84" rx="3" ry="3" style="stroke:#038048;stroke-width:1.0;"/><text fill="#000000" font-family="sans-serif" font-size="14" lengthAdjust="spacing" textLength="456" x="76" y="760.4795">Student(lastName : String, firstName : String, meanScore : double)</text><ellipse cx="67" cy="773.4297" fill="#84BE84" rx="3" ry="3" style="stroke:#038048;stroke-width:1.0;"/><text fill="#000000" font-family="sans-serif" font-size="14" lengthAdjust="spacing" textLength="100" x="76" y="776.7764">getCode() : int</text><ellipse cx="67" cy="789.7266" fill="#84BE84" rx="3" ry="3" style="stroke:#038048;stroke-width:1.0;"/><text fill="#000000" font-family="sans-serif" font-size="14" lengthAdjust="spacing" textLength="154" x="76" y="793.0732">getLastName() : String</text><ellipse cx="67" cy="806.0234" fill="#84BE84" rx="3" ry="3" style="stroke:#038048;stroke-width:1.0;"/><text fill="#000000" font-family="sans-serif" font-size="14" lengthAdjust="spacing" textLength="155" x="76" y="809.3701">getFirstName() : String</text><ellipse cx="67" cy="822.3203" fill="#84BE84" rx="3" ry="3" style="stroke:#038048;stroke-width:1.0;"/><text fill="#000000" font-family="sans-serif" font-size="14" lengthAdjust="spacing" textLength="172" x="76" y="825.667">getMeanScore() : double</text><ellipse cx="67" cy="838.6172" fill="#84BE84" rx="3" ry="3" style="stroke:#038048;stroke-width:1.0;"/><text fill="#000000" font-family="sans-serif" font-size="14" lengthAdjust="spacing" textLength="258" x="76" y="841.9639">setLastName(lastName : String) : void</text><ellipse cx="67" cy="854.9141" fill="#84BE84" rx="3" ry="3" style="stroke:#038048;stroke-width:1.0;"/><text fill="#000000" font-family="sans-serif" font-size="14" lengthAdjust="spacing" textLength="260" x="76" y="858.2607">setFirstName(firstName : String) : void</text><ellipse cx="67" cy="871.2109" fill="#84BE84" rx="3" ry="3" style="stroke:#038048;stroke-width:1.0;"/><text fill="#000000" font-family="sans-serif" font-size="14" lengthAdjust="spacing" textLength="291" x="76" y="874.5576">setMeanScore(meanScore : double) : void</text><ellipse cx="67" cy="887.5078" fill="#84BE84" rx="3" ry="3" style="stroke:#038048;stroke-width:1.0;"/><text fill="#000000" font-family="sans-serif" font-size="14" lengthAdjust="spacing" textLength="117" x="76" y="890.8545">toString() : String</text></g><!--class StudentManager--><g id="elem_StudentManager"><rect codeLine="22" fill="#FEFECE" filter="url(#f1oxdv5njtucmz)" height="227.2656" id="StudentManager" style="stroke:#A80036;stroke-width:1.0;" width="463" x="71.5" y="334.2969"/><ellipse cx="241.25" cy="350.2969" fill="#ADD1B2" rx="11" ry="11" style="stroke:#A80036;stroke-width:1.0;"/><path d="M244.2188,355.9375 Q243.6406,356.2344 243,356.375 Q242.3594,356.5313 241.6563,356.5313 Q239.1563,356.5313 237.8281,354.8906 Q236.5156,353.2344 236.5156,350.1094 Q236.5156,346.9844 237.8281,345.3281 Q239.1563,343.6719 241.6563,343.6719 Q242.3594,343.6719 243,343.8281 Q243.6563,343.9844 244.2188,344.2813 L244.2188,347 Q243.5938,346.4219 243,346.1563 Q242.4063,345.875 241.7813,345.875 Q240.4375,345.875 239.75,346.9531 Q239.0625,348.0156 239.0625,350.1094 Q239.0625,352.2031 239.75,353.2813 Q240.4375,354.3438 241.7813,354.3438 Q242.4063,354.3438 243,354.0781 Q243.5938,353.7969 244.2188,353.2188 L244.2188,355.9375 Z " fill="#000000"/><text fill="#000000" font-family="sans-serif" font-size="14" lengthAdjust="spacing" textLength="115" x="261.75" y="355.1436">StudentManager</text><line style="stroke:#A80036;stroke-width:1.0;" x1="72.5" x2="533.5" y1="366.2969" y2="366.2969"/><rect fill="none" height="6" style="stroke:#C82930;stroke-width:1.0;" width="6" x="79.5" y="376.9453"/><text fill="#000000" font-family="sans-serif" font-size="14" lengthAdjust="spacing" textLength="211" x="91.5" y="383.292">students : ArrayList&lt;Student&gt;</text><line style="stroke:#A80036;stroke-width:1.0;" x1="72.5" x2="533.5" y1="390.5938" y2="390.5938"/><ellipse cx="82.5" cy="404.2422" fill="#84BE84" rx="3" ry="3" style="stroke:#038048;stroke-width:1.0;"/><text fill="#000000" font-family="sans-serif" font-size="14" lengthAdjust="spacing" textLength="125" x="91.5" y="407.5889">StudentManager()</text><ellipse cx="82.5" cy="420.5391" fill="#84BE84" rx="3" ry="3" style="stroke:#038048;stroke-width:1.0;"/><text fill="#000000" font-family="sans-serif" font-size="14" lengthAdjust="spacing" textLength="143" x="91.5" y="423.8857">loadStudents() : void</text><ellipse cx="82.5" cy="436.8359" fill="#84BE84" rx="3" ry="3" style="stroke:#038048;stroke-width:1.0;"/><text fill="#000000" font-family="sans-serif" font-size="14" lengthAdjust="spacing" textLength="146" x="91.5" y="440.1826">saveStudents() : void</text><ellipse cx="82.5" cy="453.1328" fill="#84BE84" rx="3" ry="3" style="stroke:#038048;stroke-width:1.0;"/><text fill="#000000" font-family="sans-serif" font-size="14" lengthAdjust="spacing" textLength="282" x="91.5" y="456.4795">addStudent(student : Student) : boolean</text><ellipse cx="82.5" cy="469.4297" fill="#84BE84" rx="3" ry="3" style="stroke:#038048;stroke-width:1.0;"/><text fill="#000000" font-family="sans-serif" font-size="14" lengthAdjust="spacing" textLength="305" x="91.5" y="472.7764">updateStudent(student : Student) : boolean</text><ellipse cx="82.5" cy="485.7266" fill="#84BE84" rx="3" ry="3" style="stroke:#038048;stroke-width:1.0;"/><text fill="#000000" font-family="sans-serif" font-size="14" lengthAdjust="spacing" textLength="243" x="91.5" y="489.0732">deleteStudent(code : int) : boolean</text><ellipse cx="82.5" cy="502.0234" fill="#84BE84" rx="3" ry="3" style="stroke:#038048;stroke-width:1.0;"/><text fill="#000000" font-family="sans-serif" font-size="14" lengthAdjust="spacing" textLength="299" x="91.5" y="505.3701">searchStudentByCode(code : int) : Student</text><ellipse cx="82.5" cy="518.3203" fill="#84BE84" rx="3" ry="3" style="stroke:#038048;stroke-width:1.0;"/><text fill="#000000" font-family="sans-serif" font-size="14" lengthAdjust="spacing" textLength="437" x="91.5" y="521.667">searchStudentsByLastName(lastName : String) : List&lt;Student&gt;</text><ellipse cx="82.5" cy="534.6172" fill="#84BE84" rx="3" ry="3" style="stroke:#038048;stroke-width:1.0;"/><text fill="#000000" font-family="sans-serif" font-size="14" lengthAdjust="spacing" textLength="173" x="91.5" y="537.9639">generateReport() : String</text><ellipse cx="82.5" cy="550.9141" fill="#84BE84" rx="3" ry="3" style="stroke:#038048;stroke-width:1.0;"/><text fill="#000000" font-family="sans-serif" font-size="14" lengthAdjust="spacing" textLength="245" x="91.5" y="554.2607">getStudents() : ArrayList&lt;Student&gt;</text></g><!--class StudentView--><g id="elem_StudentView"><rect codeLine="38" fill="#FEFECE" filter="url(#f1oxdv5njtucmz)" height="178.375" id="StudentView" style="stroke:#A80036;stroke-width:1.0;" width="364" x="594" y="358.7969"/><ellipse cx="728.25" cy="374.7969" fill="#ADD1B2" rx="11" ry="11" style="stroke:#A80036;stroke-width:1.0;"/><path d="M731.2188,380.4375 Q730.6406,380.7344 730,380.875 Q729.3594,381.0313 728.6563,381.0313 Q726.1563,381.0313 724.8281,379.3906 Q723.5156,377.7344 723.5156,374.6094 Q723.5156,371.4844 724.8281,369.8281 Q726.1563,368.1719 728.6563,368.1719 Q729.3594,368.1719 730,368.3281 Q730.6563,368.4844 731.2188,368.7813 L731.2188,371.5 Q730.5938,370.9219 730,370.6563 Q729.4063,370.375 728.7813,370.375 Q727.4375,370.375 726.75,371.4531 Q726.0625,372.5156 726.0625,374.6094 Q726.0625,376.7031 726.75,377.7813 Q727.4375,378.8438 728.7813,378.8438 Q729.4063,378.8438 730,378.5781 Q730.5938,378.2969 731.2188,377.7188 L731.2188,380.4375 Z " fill="#000000"/><text fill="#000000" font-family="sans-serif" font-size="14" lengthAdjust="spacing" textLength="87" x="748.75" y="379.6436">StudentView</text><line style="stroke:#A80036;stroke-width:1.0;" x1="595" x2="957" y1="390.7969" y2="390.7969"/><line style="stroke:#A80036;stroke-width:1.0;" x1="595" x2="957" y1="398.7969" y2="398.7969"/><ellipse cx="605" cy="412.4453" fill="#84BE84" rx="3" ry="3" style="stroke:#038048;stroke-width:1.0;"/><text fill="#000000" font-family="sans-serif" font-size="14" lengthAdjust="spacing" textLength="97" x="614" y="415.792">StudentView()</text><ellipse cx="605" cy="428.7422" fill="#84BE84" rx="3" ry="3" style="stroke:#038048;stroke-width:1.0;"/><text fill="#000000" font-family="sans-serif" font-size="14" lengthAdjust="spacing" textLength="137" x="614" y="432.0889">displayMenu() : void</text><ellipse cx="605" cy="445.0391" fill="#84BE84" rx="3" ry="3" style="stroke:#038048;stroke-width:1.0;"/><text fill="#000000" font-family="sans-serif" font-size="14" lengthAdjust="spacing" textLength="246" x="614" y="448.3857">promptForInt(message : String) : int</text><ellipse cx="605" cy="461.3359" fill="#84BE84" rx="3" ry="3" style="stroke:#038048;stroke-width:1.0;"/><text fill="#000000" font-family="sans-serif" font-size="14" lengthAdjust="spacing" textLength="310" x="614" y="464.6826">promptForDouble(message : String) : double</text><ellipse cx="605" cy="477.6328" fill="#84BE84" rx="3" ry="3" style="stroke:#038048;stroke-width:1.0;"/><text fill="#000000" font-family="sans-serif" font-size="14" lengthAdjust="spacing" textLength="292" x="614" y="480.9795">promptForString(message : String) : String</text><ellipse cx="605" cy="493.9297" fill="#84BE84" rx="3" ry="3" style="stroke:#038048;stroke-width:1.0;"/><text fill="#000000" font-family="sans-serif" font-size="14" lengthAdjust="spacing" textLength="278" x="614" y="497.2764">displayMessage(message : String) : void</text><ellipse cx="605" cy="510.2266" fill="#84BE84" rx="3" ry="3" style="stroke:#038048;stroke-width:1.0;"/><text fill="#000000" font-family="sans-serif" font-size="14" lengthAdjust="spacing" textLength="275" x="614" y="513.5732">displayStudent(student : Student) : void</text><ellipse cx="605" cy="526.5234" fill="#84BE84" rx="3" ry="3" style="stroke:#038048;stroke-width:1.0;"/><text fill="#000000" font-family="sans-serif" font-size="14" lengthAdjust="spacing" textLength="338" x="614" y="529.8701">displayStudents(students : List&lt;Student&gt;) : void</text></g><!--class StudentController--><g id="elem_StudentController"><rect codeLine="51" fill="#FEFECE" filter="url(#f1oxdv5njtucmz)" height="113.1875" id="StudentController" style="stroke:#A80036;stroke-width:1.0;" width="215" x="435.5" y="121.2969"/><ellipse cx="477.95" cy="137.2969" fill="#ADD1B2" rx="11" ry="11" style="stroke:#A80036;stroke-width:1.0;"/><path d="M480.9188,142.9375 Q480.3406,143.2344 479.7,143.375 Q479.0594,143.5313 478.3563,143.5313 Q475.8563,143.5313 474.5281,141.8906 Q473.2156,140.2344 473.2156,137.1094 Q473.2156,133.9844 474.5281,132.3281 Q475.8563,130.6719 478.3563,130.6719 Q479.0594,130.6719 479.7,130.8281 Q480.3563,130.9844 480.9188,131.2813 L480.9188,134 Q480.2938,133.4219 479.7,133.1563 Q479.1063,132.875 478.4813,132.875 Q477.1375,132.875 476.45,133.9531 Q475.7625,135.0156 475.7625,137.1094 Q475.7625,139.2031 476.45,140.2813 Q477.1375,141.3438 478.4813,141.3438 Q479.1063,141.3438 479.7,141.0781 Q480.2938,140.7969 480.9188,140.2188 L480.9188,142.9375 Z " fill="#000000"/><text fill="#000000" font-family="sans-serif" font-size="14" lengthAdjust="spacing" textLength="122" x="498.05" y="142.1436">StudentController</text><line style="stroke:#A80036;stroke-width:1.0;" x1="436.5" x2="649.5" y1="153.2969" y2="153.2969"/><rect fill="none" height="6" style="stroke:#C82930;stroke-width:1.0;" width="6" x="443.5" y="163.9453"/><text fill="#000000" font-family="sans-serif" font-size="14" lengthAdjust="spacing" textLength="189" x="455.5" y="170.292">manager : StudentManager</text><rect fill="none" height="6" style="stroke:#C82930;stroke-width:1.0;" width="6" x="443.5" y="180.2422"/><text fill="#000000" font-family="sans-serif" font-size="14" lengthAdjust="spacing" textLength="130" x="455.5" y="186.5889">view : StudentView</text><line style="stroke:#A80036;stroke-width:1.0;" x1="436.5" x2="649.5" y1="193.8906" y2="193.8906"/><ellipse cx="446.5" cy="207.5391" fill="#84BE84" rx="3" ry="3" style="stroke:#038048;stroke-width:1.0;"/><text fill="#000000" font-family="sans-serif" font-size="14" lengthAdjust="spacing" textLength="132" x="455.5" y="210.8857">StudentController()</text><ellipse cx="446.5" cy="223.8359" fill="#84BE84" rx="3" ry="3" style="stroke:#038048;stroke-width:1.0;"/><text fill="#000000" font-family="sans-serif" font-size="14" lengthAdjust="spacing" textLength="74" x="455.5" y="227.1826">run() : void</text></g><!--link StudentController to StudentManager--><g id="link_StudentController_StudentManager"><path codeLine="60" d="M493.27,234.3269 C468.4,262.0969 437.31,296.8169 407.52,330.0769 " fill="none" id="StudentController-to-StudentManager" style="stroke:#A80036;stroke-width:1.0;"/><polygon fill="#A80036" points="403.89,334.1269,412.8839,330.1131,407.2348,330.4104,406.9375,324.7614,403.89,334.1269" style="stroke:#A80036;stroke-width:1.0;"/><text fill="#000000" font-family="sans-serif" font-size="13" lengthAdjust="spacing" textLength="37" x="459" y="279.3638">utilise</text></g><!--link StudentController to StudentView--><g id="link_StudentController_StudentView"><path codeLine="61" d="M591.28,234.3269 C621.49,269.0869 661.16,314.7069 695.99,354.7769 " fill="none" id="StudentController-to-StudentView" style="stroke:#A80036;stroke-width:1.0;"/><polygon fill="#A80036" points="699.35,358.6269,696.454,349.2134,696.0656,354.8569,690.4221,354.4685,699.35,358.6269" style="stroke:#A80036;stroke-width:1.0;"/><text fill="#000000" font-family="sans-serif" font-size="13" lengthAdjust="spacing" textLength="66" x="632" y="279.3638">met &#224; jour</text></g><!--link StudentManager to Student--><g id="link_StudentManager_Student"><path codeLine="62" d="M300.88,561.5369 C300.44,584.6769 299.98,609.2469 299.53,633.0569 " fill="none" id="StudentManager-to-Student" style="stroke:#A80036;stroke-width:1.0;"/><polygon fill="#A80036" points="299.43,638.1269,303.5837,629.1968,299.5157,633.1276,295.5849,629.0596,299.43,638.1269" style="stroke:#A80036;stroke-width:1.0;"/><text fill="#000000" font-family="sans-serif" font-size="13" lengthAdjust="spacing" textLength="29" x="301" y="604.3638">g&#232;re</text></g><!--link StudentView to Student--><g id="link_StudentView_Student"><path codeLine="63" d="M643.53,536.8869 C597.74,567.3269 545.39,602.1369 495.48,635.3169 " fill="none" id="StudentView-to-Student" style="stroke:#A80036;stroke-width:1.0;"/><polygon fill="#A80036" points="491.28,638.1169,500.9899,636.4681,495.4446,635.35,496.5628,629.8047,491.28,638.1169" style="stroke:#A80036;stroke-width:1.0;"/><text fill="#000000" font-family="sans-serif" font-size="13" lengthAdjust="spacing" textLength="42" x="551" y="604.3638">affiche</text></g><!--SRC=[bLNBRjim4BphAmYT52G-zMOK0H870Gf4FTI0xuouLjXGfC27MwFml_IOtli7-h5ID2rH56MWFiKxC_lWx3gQQWReGLPlL4EbZGHKxZQe5KOYXb4DIbF14G65kZ_Q48gvLbcctYb7KYZ8iXPNxxW6bCFFJpdwDNul1Ua-6FGnP3yLmqgXhSq1NFiOGYjK2G9eZIZNGyWozLVSzE6jbfJN0xAdSWbg0FDj9MGF4M5U6NZezbAqcEMzIoIyIsIw6LBLe3UsuU9cqhABl_Zi3fiqv-3dIwK5lBnKTNWqWGhIpwRe-GT1ISWUgyqdJF77wedfOxuMvqJn9AUvqINcTXbauBSw0yfA7wJ4nnUgz6VFleyjy_9YD809J3oeYlaa-03BA2ONQU6xSFsxlthogn3CJZ_mJKkmXl-I460mIiRTJd4LO7jtdljuT7irLNWihL2Fn-ixaNxP6ZX8EzOtQ8NK2yiuUSC5cqxPARZ-dKbV-ex2Zy7zsp0Qc4geQXa-bi3DtBLMYgRLpq9-iI_QW59zlN3Ey0u7yfDRtIG_kgr1ufSw9ObUQEZNCPEAoGYUVtMJhWXK4HpDn8Y9S6h8Hd0jkxyCZ4mQut31sEGu6t-kw-W01yAXjtCTsXXRE-OD39Q65xDURRVpNbQh-_YtOuroeocZ2lBhWjsvkRm1ZRhVwBlz9pOeBia2Ua-jkmyvfdK98WRUxsdrPZd_0000]--></g></svg>