<?xml version="1.0" encoding="us-ascii" standalone="no"?><svg xmlns="http://www.w3.org/2000/svg" xmlns:xlink="http://www.w3.org/1999/xlink" contentStyleType="text/css" height="947px" preserveAspectRatio="none" style="width:1099px;height:947px;background:#FFFFFF;" version="1.1" viewBox="0 0 1099 947" width="1099px" zoomAndPan="magnify"><defs><filter height="300%" id="f1qoesowipz3wt" width="300%" x="-1" y="-1"><feGaussianBlur result="blurOut" stdDeviation="2.0"/><feColorMatrix in="blurOut" result="blurOut2" type="matrix" values="0 0 0 0 0 0 0 0 0 0 0 0 0 0 0 0 0 0 .4 0"/><feOffset dx="4.0" dy="4.0" in="blurOut2" result="blurOut3"/><feBlend in="SourceGraphic" in2="blurOut3" mode="normal"/></filter></defs><g><text fill="#000000" font-family="sans-serif" font-size="14" font-weight="bold" lengthAdjust="spacing" textLength="376" x="354.5" y="22.9951">Architecture MVC pour la gestion des &#233;tudiants</text><!--cluster ex3--><g id="cluster_ex3"><polygon fill="none" filter="url(#f1qoesowipz3wt)" points="16,43.2969,51,43.2969,58,65.5938,1082,65.5938,1082,938.2969,16,938.2969,16,43.2969" style="stroke:#000000;stroke-width:1.5;"/><line style="stroke:#000000;stroke-width:1.5;" x1="16" x2="58" y1="65.5938" y2="65.5938"/><text fill="#000000" font-family="sans-serif" font-size="14" font-weight="bold" lengthAdjust="spacing" textLength="29" x="20" y="58.292">ex3</text></g><!--cluster Mod?le--><g id="cluster_Mod&#232;le"><polygon fill="none" filter="url(#f1qoesowipz3wt)" points="40,299.2969,103,299.2969,110,321.5938,638,321.5938,638,914.2969,40,914.2969,40,299.2969" style="stroke:#000000;stroke-width:1.5;"/><line style="stroke:#000000;stroke-width:1.5;" x1="40" x2="110" y1="321.5938" y2="321.5938"/><text fill="#000000" font-family="sans-serif" font-size="14" font-weight="bold" lengthAdjust="spacing" textLength="57" x="44" y="314.292">Mod&#232;le</text></g><!--cluster Vue--><g id="cluster_Vue"><polygon fill="none" filter="url(#f1qoesowipz3wt)" points="662,323.7969,699,323.7969,706,346.0938,1058,346.0938,1058,552.7969,662,552.7969,662,323.7969" style="stroke:#000000;stroke-width:1.5;"/><line style="stroke:#000000;stroke-width:1.5;" x1="662" x2="706" y1="346.0938" y2="346.0938"/><text fill="#000000" font-family="sans-serif" font-size="14" font-weight="bold" lengthAdjust="spacing" textLength="31" x="666" y="338.792">Vue</text></g><!--cluster Contr?leur--><g id="cluster_Contr&#244;leur"><polygon fill="none" filter="url(#f1qoesowipz3wt)" points="475,86.2969,566,86.2969,573,108.5938,723,108.5938,723,250.2969,475,250.2969,475,86.2969" style="stroke:#000000;stroke-width:1.5;"/><line style="stroke:#000000;stroke-width:1.5;" x1="475" x2="573" y1="108.5938" y2="108.5938"/><text fill="#000000" font-family="sans-serif" font-size="14" font-weight="bold" lengthAdjust="spacing" textLength="85" x="479" y="101.292">Contr&#244;leur</text></g><!--class Student--><g id="elem_Student"><rect codeLine="7" fill="#FEFECE" filter="url(#f1qoesowipz3wt)" height="259.8594" id="Student" style="stroke:#A80036;stroke-width:1.0;" width="482" x="119" y="638.2969"/><ellipse cx="328.25" cy="654.2969" fill="#ADD1B2" rx="11" ry="11" style="stroke:#A80036;stroke-width:1.0;"/><path d="M331.2188,659.9375 Q330.6406,660.2344 330,660.375 Q329.3594,660.5313 328.6563,660.5313 Q326.1563,660.5313 324.8281,658.8906 Q323.5156,657.2344 323.5156,654.1094 Q323.5156,650.9844 324.8281,649.3281 Q326.1563,647.6719 328.6563,647.6719 Q329.3594,647.6719 330,647.8281 Q330.6563,647.9844 331.2188,648.2813 L331.2188,651 Q330.5938,650.4219 330,650.1563 Q329.4063,649.875 328.7813,649.875 Q327.4375,649.875 326.75,650.9531 Q326.0625,652.0156 326.0625,654.1094 Q326.0625,656.2031 326.75,657.2813 Q327.4375,658.3438 328.7813,658.3438 Q329.4063,658.3438 330,658.0781 Q330.5938,657.7969 331.2188,657.2188 L331.2188,659.9375 Z " fill="#000000"/><text fill="#000000" font-family="sans-serif" font-size="14" lengthAdjust="spacing" textLength="55" x="348.75" y="659.1436">Student</text><line style="stroke:#A80036;stroke-width:1.0;" x1="120" x2="600" y1="670.2969" y2="670.2969"/><rect fill="none" height="6" style="stroke:#C82930;stroke-width:1.0;" width="6" x="127" y="680.9453"/><text fill="#000000" font-family="sans-serif" font-size="14" lengthAdjust="spacing" textLength="65" x="139" y="687.292">code : int</text><rect fill="none" height="6" style="stroke:#C82930;stroke-width:1.0;" width="6" x="127" y="697.2422"/><text fill="#000000" font-family="sans-serif" font-size="14" lengthAdjust="spacing" textLength="117" x="139" y="703.5889">lastName : String</text><rect fill="none" height="6" style="stroke:#C82930;stroke-width:1.0;" width="6" x="127" y="713.5391"/><text fill="#000000" font-family="sans-serif" font-size="14" lengthAdjust="spacing" textLength="118" x="139" y="719.8857">firstName : String</text><rect fill="none" height="6" style="stroke:#C82930;stroke-width:1.0;" width="6" x="127" y="729.8359"/><text fill="#000000" font-family="sans-serif" font-size="14" lengthAdjust="spacing" textLength="140" x="139" y="736.1826">meanScore : double</text><line style="stroke:#A80036;stroke-width:1.0;" x1="120" x2="600" y1="743.4844" y2="743.4844"/><ellipse cx="130" cy="757.1328" fill="#84BE84" rx="3" ry="3" style="stroke:#038048;stroke-width:1.0;"/><text fill="#000000" font-family="sans-serif" font-size="14" lengthAdjust="spacing" textLength="456" x="139" y="760.4795">Student(lastName : String, firstName : String, meanScore : double)</text><ellipse cx="130" cy="773.4297" fill="#84BE84" rx="3" ry="3" style="stroke:#038048;stroke-width:1.0;"/><text fill="#000000" font-family="sans-serif" font-size="14" lengthAdjust="spacing" textLength="100" x="139" y="776.7764">getCode() : int</text><ellipse cx="130" cy="789.7266" fill="#84BE84" rx="3" ry="3" style="stroke:#038048;stroke-width:1.0;"/><text fill="#000000" font-family="sans-serif" font-size="14" lengthAdjust="spacing" textLength="154" x="139" y="793.0732">getLastName() : String</text><ellipse cx="130" cy="806.0234" fill="#84BE84" rx="3" ry="3" style="stroke:#038048;stroke-width:1.0;"/><text fill="#000000" font-family="sans-serif" font-size="14" lengthAdjust="spacing" textLength="155" x="139" y="809.3701">getFirstName() : String</text><ellipse cx="130" cy="822.3203" fill="#84BE84" rx="3" ry="3" style="stroke:#038048;stroke-width:1.0;"/><text fill="#000000" font-family="sans-serif" font-size="14" lengthAdjust="spacing" textLength="172" x="139" y="825.667">getMeanScore() : double</text><ellipse cx="130" cy="838.6172" fill="#84BE84" rx="3" ry="3" style="stroke:#038048;stroke-width:1.0;"/><text fill="#000000" font-family="sans-serif" font-size="14" lengthAdjust="spacing" textLength="258" x="139" y="841.9639">setLastName(lastName : String) : void</text><ellipse cx="130" cy="854.9141" fill="#84BE84" rx="3" ry="3" style="stroke:#038048;stroke-width:1.0;"/><text fill="#000000" font-family="sans-serif" font-size="14" lengthAdjust="spacing" textLength="260" x="139" y="858.2607">setFirstName(firstName : String) : void</text><ellipse cx="130" cy="871.2109" fill="#84BE84" rx="3" ry="3" style="stroke:#038048;stroke-width:1.0;"/><text fill="#000000" font-family="sans-serif" font-size="14" lengthAdjust="spacing" textLength="291" x="139" y="874.5576">setMeanScore(meanScore : double) : void</text><ellipse cx="130" cy="887.5078" fill="#84BE84" rx="3" ry="3" style="stroke:#038048;stroke-width:1.0;"/><text fill="#000000" font-family="sans-serif" font-size="14" lengthAdjust="spacing" textLength="117" x="139" y="890.8545">toString() : String</text></g><!--class StudentManager--><g id="elem_StudentManager"><rect codeLine="22" fill="#FEFECE" filter="url(#f1qoesowipz3wt)" height="227.2656" id="StudentManager" style="stroke:#A80036;stroke-width:1.0;" width="565" x="56.5" y="334.2969"/><ellipse cx="277.25" cy="350.2969" fill="#ADD1B2" rx="11" ry="11" style="stroke:#A80036;stroke-width:1.0;"/><path d="M280.2188,355.9375 Q279.6406,356.2344 279,356.375 Q278.3594,356.5313 277.6563,356.5313 Q275.1563,356.5313 273.8281,354.8906 Q272.5156,353.2344 272.5156,350.1094 Q272.5156,346.9844 273.8281,345.3281 Q275.1563,343.6719 277.6563,343.6719 Q278.3594,343.6719 279,343.8281 Q279.6563,343.9844 280.2188,344.2813 L280.2188,347 Q279.5938,346.4219 279,346.1563 Q278.4063,345.875 277.7813,345.875 Q276.4375,345.875 275.75,346.9531 Q275.0625,348.0156 275.0625,350.1094 Q275.0625,352.2031 275.75,353.2813 Q276.4375,354.3438 277.7813,354.3438 Q278.4063,354.3438 279,354.0781 Q279.5938,353.7969 280.2188,353.2188 L280.2188,355.9375 Z " fill="#000000"/><text fill="#000000" font-family="sans-serif" font-size="14" lengthAdjust="spacing" textLength="115" x="297.75" y="355.1436">StudentManager</text><line style="stroke:#A80036;stroke-width:1.0;" x1="57.5" x2="620.5" y1="366.2969" y2="366.2969"/><rect fill="none" height="6" style="stroke:#C82930;stroke-width:1.0;" width="6" x="64.5" y="376.9453"/><text fill="#000000" font-family="sans-serif" font-size="14" lengthAdjust="spacing" textLength="211" x="76.5" y="383.292">students : ArrayList&lt;Student&gt;</text><line style="stroke:#A80036;stroke-width:1.0;" x1="57.5" x2="620.5" y1="390.5938" y2="390.5938"/><ellipse cx="67.5" cy="404.2422" fill="#84BE84" rx="3" ry="3" style="stroke:#038048;stroke-width:1.0;"/><text fill="#000000" font-family="sans-serif" font-size="14" lengthAdjust="spacing" textLength="125" x="76.5" y="407.5889">StudentManager()</text><ellipse cx="67.5" cy="420.5391" fill="#84BE84" rx="3" ry="3" style="stroke:#038048;stroke-width:1.0;"/><text fill="#000000" font-family="sans-serif" font-size="14" lengthAdjust="spacing" textLength="282" x="76.5" y="423.8857">addStudent(student : Student) : boolean</text><ellipse cx="67.5" cy="436.8359" fill="#84BE84" rx="3" ry="3" style="stroke:#038048;stroke-width:1.0;"/><text fill="#000000" font-family="sans-serif" font-size="14" lengthAdjust="spacing" textLength="305" x="76.5" y="440.1826">updateStudent(student : Student) : boolean</text><ellipse cx="67.5" cy="453.1328" fill="#84BE84" rx="3" ry="3" style="stroke:#038048;stroke-width:1.0;"/><text fill="#000000" font-family="sans-serif" font-size="14" lengthAdjust="spacing" textLength="243" x="76.5" y="456.4795">deleteStudent(code : int) : boolean</text><ellipse cx="67.5" cy="469.4297" fill="#84BE84" rx="3" ry="3" style="stroke:#038048;stroke-width:1.0;"/><text fill="#000000" font-family="sans-serif" font-size="14" lengthAdjust="spacing" textLength="299" x="76.5" y="472.7764">searchStudentByCode(code : int) : Student</text><ellipse cx="67.5" cy="485.7266" fill="#84BE84" rx="3" ry="3" style="stroke:#038048;stroke-width:1.0;"/><text fill="#000000" font-family="sans-serif" font-size="14" lengthAdjust="spacing" textLength="437" x="76.5" y="489.0732">searchStudentsByLastName(lastName : String) : List&lt;Student&gt;</text><ellipse cx="67.5" cy="502.0234" fill="#84BE84" rx="3" ry="3" style="stroke:#038048;stroke-width:1.0;"/><text fill="#000000" font-family="sans-serif" font-size="14" lengthAdjust="spacing" textLength="173" x="76.5" y="505.3701">generateReport() : String</text><ellipse cx="67.5" cy="518.3203" fill="#84BE84" rx="3" ry="3" style="stroke:#038048;stroke-width:1.0;"/><text fill="#000000" font-family="sans-serif" font-size="14" lengthAdjust="spacing" textLength="146" x="76.5" y="521.667">saveStudents() : void</text><ellipse cx="67.5" cy="534.6172" fill="#84BE84" rx="3" ry="3" style="stroke:#038048;stroke-width:1.0;"/><text fill="#000000" font-family="sans-serif" font-size="14" lengthAdjust="spacing" textLength="143" x="76.5" y="537.9639">loadStudents() : void</text><ellipse cx="67.5" cy="550.9141" fill="#84BE84" rx="3" ry="3" style="stroke:#038048;stroke-width:1.0;"/><text fill="#000000" font-family="sans-serif" font-size="14" lengthAdjust="spacing" textLength="539" x="76.5" y="554.2607">saveSpecificStudents(filename : String, condition : Predicate&lt;Student&gt;) : void</text></g><!--class StudentView--><g id="elem_StudentView"><rect codeLine="38" fill="#FEFECE" filter="url(#f1qoesowipz3wt)" height="178.375" id="StudentView" style="stroke:#A80036;stroke-width:1.0;" width="364" x="678" y="358.7969"/><ellipse cx="812.25" cy="374.7969" fill="#ADD1B2" rx="11" ry="11" style="stroke:#A80036;stroke-width:1.0;"/><path d="M815.2188,380.4375 Q814.6406,380.7344 814,380.875 Q813.3594,381.0313 812.6563,381.0313 Q810.1563,381.0313 808.8281,379.3906 Q807.5156,377.7344 807.5156,374.6094 Q807.5156,371.4844 808.8281,369.8281 Q810.1563,368.1719 812.6563,368.1719 Q813.3594,368.1719 814,368.3281 Q814.6563,368.4844 815.2188,368.7813 L815.2188,371.5 Q814.5938,370.9219 814,370.6563 Q813.4063,370.375 812.7813,370.375 Q811.4375,370.375 810.75,371.4531 Q810.0625,372.5156 810.0625,374.6094 Q810.0625,376.7031 810.75,377.7813 Q811.4375,378.8438 812.7813,378.8438 Q813.4063,378.8438 814,378.5781 Q814.5938,378.2969 815.2188,377.7188 L815.2188,380.4375 Z " fill="#000000"/><text fill="#000000" font-family="sans-serif" font-size="14" lengthAdjust="spacing" textLength="87" x="832.75" y="379.6436">StudentView</text><line style="stroke:#A80036;stroke-width:1.0;" x1="679" x2="1041" y1="390.7969" y2="390.7969"/><line style="stroke:#A80036;stroke-width:1.0;" x1="679" x2="1041" y1="398.7969" y2="398.7969"/><ellipse cx="689" cy="412.4453" fill="#84BE84" rx="3" ry="3" style="stroke:#038048;stroke-width:1.0;"/><text fill="#000000" font-family="sans-serif" font-size="14" lengthAdjust="spacing" textLength="97" x="698" y="415.792">StudentView()</text><ellipse cx="689" cy="428.7422" fill="#84BE84" rx="3" ry="3" style="stroke:#038048;stroke-width:1.0;"/><text fill="#000000" font-family="sans-serif" font-size="14" lengthAdjust="spacing" textLength="137" x="698" y="432.0889">displayMenu() : void</text><ellipse cx="689" cy="445.0391" fill="#84BE84" rx="3" ry="3" style="stroke:#038048;stroke-width:1.0;"/><text fill="#000000" font-family="sans-serif" font-size="14" lengthAdjust="spacing" textLength="246" x="698" y="448.3857">promptForInt(message : String) : int</text><ellipse cx="689" cy="461.3359" fill="#84BE84" rx="3" ry="3" style="stroke:#038048;stroke-width:1.0;"/><text fill="#000000" font-family="sans-serif" font-size="14" lengthAdjust="spacing" textLength="310" x="698" y="464.6826">promptForDouble(message : String) : double</text><ellipse cx="689" cy="477.6328" fill="#84BE84" rx="3" ry="3" style="stroke:#038048;stroke-width:1.0;"/><text fill="#000000" font-family="sans-serif" font-size="14" lengthAdjust="spacing" textLength="292" x="698" y="480.9795">promptForString(message : String) : String</text><ellipse cx="689" cy="493.9297" fill="#84BE84" rx="3" ry="3" style="stroke:#038048;stroke-width:1.0;"/><text fill="#000000" font-family="sans-serif" font-size="14" lengthAdjust="spacing" textLength="278" x="698" y="497.2764">displayMessage(message : String) : void</text><ellipse cx="689" cy="510.2266" fill="#84BE84" rx="3" ry="3" style="stroke:#038048;stroke-width:1.0;"/><text fill="#000000" font-family="sans-serif" font-size="14" lengthAdjust="spacing" textLength="275" x="698" y="513.5732">displayStudent(student : Student) : void</text><ellipse cx="689" cy="526.5234" fill="#84BE84" rx="3" ry="3" style="stroke:#038048;stroke-width:1.0;"/><text fill="#000000" font-family="sans-serif" font-size="14" lengthAdjust="spacing" textLength="338" x="698" y="529.8701">displayStudents(students : List&lt;Student&gt;) : void</text></g><!--class StudentController--><g id="elem_StudentController"><rect codeLine="51" fill="#FEFECE" filter="url(#f1qoesowipz3wt)" height="113.1875" id="StudentController" style="stroke:#A80036;stroke-width:1.0;" width="215" x="491.5" y="121.2969"/><ellipse cx="533.95" cy="137.2969" fill="#ADD1B2" rx="11" ry="11" style="stroke:#A80036;stroke-width:1.0;"/><path d="M536.9188,142.9375 Q536.3406,143.2344 535.7,143.375 Q535.0594,143.5313 534.3563,143.5313 Q531.8563,143.5313 530.5281,141.8906 Q529.2156,140.2344 529.2156,137.1094 Q529.2156,133.9844 530.5281,132.3281 Q531.8563,130.6719 534.3563,130.6719 Q535.0594,130.6719 535.7,130.8281 Q536.3563,130.9844 536.9188,131.2813 L536.9188,134 Q536.2938,133.4219 535.7,133.1563 Q535.1063,132.875 534.4813,132.875 Q533.1375,132.875 532.45,133.9531 Q531.7625,135.0156 531.7625,137.1094 Q531.7625,139.2031 532.45,140.2813 Q533.1375,141.3438 534.4813,141.3438 Q535.1063,141.3438 535.7,141.0781 Q536.2938,140.7969 536.9188,140.2188 L536.9188,142.9375 Z " fill="#000000"/><text fill="#000000" font-family="sans-serif" font-size="14" lengthAdjust="spacing" textLength="122" x="554.05" y="142.1436">StudentController</text><line style="stroke:#A80036;stroke-width:1.0;" x1="492.5" x2="705.5" y1="153.2969" y2="153.2969"/><rect fill="none" height="6" style="stroke:#C82930;stroke-width:1.0;" width="6" x="499.5" y="163.9453"/><text fill="#000000" font-family="sans-serif" font-size="14" lengthAdjust="spacing" textLength="189" x="511.5" y="170.292">manager : StudentManager</text><rect fill="none" height="6" style="stroke:#C82930;stroke-width:1.0;" width="6" x="499.5" y="180.2422"/><text fill="#000000" font-family="sans-serif" font-size="14" lengthAdjust="spacing" textLength="130" x="511.5" y="186.5889">view : StudentView</text><line style="stroke:#A80036;stroke-width:1.0;" x1="492.5" x2="705.5" y1="193.8906" y2="193.8906"/><ellipse cx="502.5" cy="207.5391" fill="#84BE84" rx="3" ry="3" style="stroke:#038048;stroke-width:1.0;"/><text fill="#000000" font-family="sans-serif" font-size="14" lengthAdjust="spacing" textLength="132" x="511.5" y="210.8857">StudentController()</text><ellipse cx="502.5" cy="223.8359" fill="#84BE84" rx="3" ry="3" style="stroke:#038048;stroke-width:1.0;"/><text fill="#000000" font-family="sans-serif" font-size="14" lengthAdjust="spacing" textLength="74" x="511.5" y="227.1826">run() : void</text></g><!--link StudentController to StudentManager--><g id="link_StudentController_StudentManager"><path codeLine="60" d="M545.13,234.3269 C518.08,262.2069 484.23,297.0969 451.84,330.4869 " fill="none" id="StudentController-to-StudentManager" style="stroke:#A80036;stroke-width:1.0;"/><polygon fill="#A80036" points="448.3,334.1269,457.4339,330.443,451.7778,330.5346,451.6862,324.8784,448.3,334.1269" style="stroke:#A80036;stroke-width:1.0;"/><text fill="#000000" font-family="sans-serif" font-size="13" lengthAdjust="spacing" textLength="37" x="508" y="279.3638">utilise</text></g><!--link StudentController to StudentView--><g id="link_StudentController_StudentView"><path codeLine="61" d="M653.08,234.3269 C686.93,269.0869 731.36,314.7069 770.38,354.7769 " fill="none" id="StudentController-to-StudentView" style="stroke:#A80036;stroke-width:1.0;"/><polygon fill="#A80036" points="774.14,358.6269,770.7164,349.3922,770.6477,355.0487,764.9912,354.98,774.14,358.6269" style="stroke:#A80036;stroke-width:1.0;"/><text fill="#000000" font-family="sans-serif" font-size="13" lengthAdjust="spacing" textLength="66" x="699" y="279.3638">met &#224; jour</text></g><!--link StudentManager to Student--><g id="link_StudentManager_Student"><path codeLine="62" d="M346.43,561.5369 C347.96,584.6769 349.58,609.2469 351.15,633.0569 " fill="none" id="StudentManager-to-Student" style="stroke:#A80036;stroke-width:1.0;"/><polygon fill="#A80036" points="351.48,638.1269,354.8795,628.8833,351.1512,633.1377,346.8968,629.4094,351.48,638.1269" style="stroke:#A80036;stroke-width:1.0;"/><text fill="#000000" font-family="sans-serif" font-size="13" lengthAdjust="spacing" textLength="29" x="350" y="604.3638">g&#232;re</text></g><!--link StudentView to Student--><g id="link_StudentView_Student"><path codeLine="63" d="M721.72,536.8869 C673.93,567.3269 619.28,602.1369 567.18,635.3169 " fill="none" id="StudentView-to-Student" style="stroke:#A80036;stroke-width:1.0;"/><polygon fill="#A80036" points="562.8,638.1169,572.5395,636.6532,567.0165,635.4297,568.2401,629.9068,562.8,638.1169" style="stroke:#A80036;stroke-width:1.0;"/><text fill="#000000" font-family="sans-serif" font-size="13" lengthAdjust="spacing" textLength="42" x="625" y="604.3638">affiche</text></g><!--SRC=[bLL1Rjim4Bpx5GkV52G-zMOK0H8N0Gh4HL43lZFYMc53aG99kJKA_wN7zDuVw6EbQ8gY95f0VRAvCyDPpQvicE483of_PGPpKok4xNu3bQmLS085QiEa08eQcZ-cfem8enSB_SO4AAbniQX8_aOAX2N-_B24N_tlhQJDEyVs3EmdvqHhs5aD5CQV0QmWbnHX3KoOS6IHvWifs-ETKKmKeN9WwbgfH29skLHjYShwXQCltNQNPXFTkuJWNKBf9aWLQ3RMS7OpiEpEdxswgmtCkV9JTzEL-hQxrTL77UX8Vj95YpzAHcDqVzkqmnI-lptH_HXlv4LetCbv6lIM23iCAifRNmhQKX-K8gTdfir7ZxuVH-RfMHy0eRIBqoiv3-vRQ-T5Icux2FYweiJWVr4eSkmf_Noci1g9tHsFVJovsHWoV2tDq8-d-LpJJwT0WSgszGqhgKnge3GvTXteR18WbuHUhpfkXJaxi3oW3eoZ6Ev9BWLbxlMmXgyAASkjfM1s87jUdACtnRvElnNs37-4IRcDJwC1e4nNd9osAEgfzKh9iZ9FKdssoPMeTNjV_3pZdGtWJsxCa_ZH7WQANu0KPPH4yEkGISQW1O-VdTWPWiwY1HjCpqmW6ocCQlvoh5Ko65UNd0yMkVIhlHujQm0SspZNSOpZQ7lTA61LYspYrRgTUbcjxiVlcJKiQyCuqxYS9-mlvfOb6cX-mtVxXnSOdLW4Rw55ywvwMISmGf23NPbNY_a7]--></g></svg>