<?xml version="1.0" encoding="UTF-8" standalone="no"?>
<!-- Created with Inkscape (http://www.inkscape.org/) -->

<svg
   width="124.30183mm"
   height="38.333817mm"
   viewBox="0 0 124.30183 38.333816"
   version="1.1"
   id="svg1"
   inkscape:version="1.3.2 (091e20e, 2023-11-25)"
   sodipodi:docname="mvc.svg"
   xmlns:inkscape="http://www.inkscape.org/namespaces/inkscape"
   xmlns:sodipodi="http://sodipodi.sourceforge.net/DTD/sodipodi-0.dtd"
   xmlns="http://www.w3.org/2000/svg"
   xmlns:svg="http://www.w3.org/2000/svg">
  <sodipodi:namedview
     id="namedview1"
     pagecolor="#ffffff"
     bordercolor="#000000"
     borderopacity="0.25"
     inkscape:showpageshadow="2"
     inkscape:pageopacity="0.0"
     inkscape:pagecheckerboard="0"
     inkscape:deskcolor="#d1d1d1"
     inkscape:document-units="mm"
     inkscape:zoom="0.70710678"
     inkscape:cx="497.80317"
     inkscape:cy="185.96908"
     inkscape:window-width="1472"
     inkscape:window-height="630"
     inkscape:window-x="40"
     inkscape:window-y="38"
     inkscape:window-maximized="0"
     inkscape:current-layer="layer1" />
  <defs
     id="defs1" />
  <g
     inkscape:label="Calque 1"
     inkscape:groupmode="layer"
     id="layer1"
     transform="translate(19.299749,-48.961977)">
    <rect
       style="fill:none;stroke:#000000;stroke-width:0.52959;stroke-linecap:round;stroke-linejoin:round;stroke-dasharray:none;stroke-dashoffset:0;stroke-opacity:1"
       id="rect1"
       width="27.141356"
       height="12.939485"
       x="42.994736"
       y="49.226772"
       rx="2.6479497"
       ry="2.6479497" />
    <text
       xml:space="preserve"
       style="font-size:4.48386px;line-height:10.978px;font-family:'Fira Sans';-inkscape-font-specification:'Fira Sans';text-align:center;text-anchor:middle;fill:#000000;fill-opacity:1;stroke-width:0.128161;stroke-linecap:round;stroke-linejoin:round;stroke-dasharray:0.512643, 0.512643"
       x="56.704414"
       y="57.425045"
       id="text1"><tspan
         sodipodi:role="line"
         id="tspan1"
         style="font-style:normal;font-variant:normal;font-weight:300;font-stretch:normal;font-size:4.48386px;line-height:10.978px;font-family:'Fira Sans';-inkscape-font-specification:'Fira Sans Light';fill:#000000;fill-opacity:1;stroke-width:0.128161"
         x="56.704414"
         y="57.425045">Contrôleur</tspan></text>
    <rect
       style="fill:none;stroke:#000000;stroke-width:0.52959;stroke-linecap:round;stroke-linejoin:round;stroke-dasharray:none;stroke-dashoffset:0;stroke-opacity:1"
       id="rect2"
       width="27.141356"
       height="12.939485"
       x="6.6906509"
       y="73.618118"
       rx="2.6479497"
       ry="2.6479497" />
    <text
       xml:space="preserve"
       style="font-size:4.48386px;line-height:10.978px;font-family:'Fira Sans';-inkscape-font-specification:'Fira Sans';text-align:center;text-anchor:middle;fill:#000000;fill-opacity:1;stroke-width:0.128161;stroke-linecap:round;stroke-linejoin:round;stroke-dasharray:0.512643, 0.512643"
       x="20.373795"
       y="81.710648"
       id="text3"><tspan
         sodipodi:role="line"
         id="tspan3"
         style="font-style:normal;font-variant:normal;font-weight:300;font-stretch:normal;font-size:4.48386px;line-height:10.978px;font-family:'Fira Sans';-inkscape-font-specification:'Fira Sans Light';fill:#000000;fill-opacity:1;stroke-width:0.128161"
         x="20.373795"
         y="81.710648">Vue</tspan></text>
    <rect
       style="fill:none;stroke:#000000;stroke-width:0.52959;stroke-linecap:round;stroke-linejoin:round;stroke-dasharray:none;stroke-dashoffset:0;stroke-opacity:1"
       id="rect3"
       width="27.141356"
       height="12.939485"
       x="77.595924"
       y="74.091515"
       rx="2.6479497"
       ry="2.6479497" />
    <text
       xml:space="preserve"
       style="font-size:4.48386px;line-height:10.978px;font-family:'Fira Sans';-inkscape-font-specification:'Fira Sans';text-align:center;text-anchor:middle;fill:#000000;fill-opacity:1;stroke-width:0.128161;stroke-linecap:round;stroke-linejoin:round;stroke-dasharray:0.512643, 0.512643"
       x="91.140442"
       y="82.437744"
       id="text4"><tspan
         sodipodi:role="line"
         id="tspan4"
         style="font-style:normal;font-variant:normal;font-weight:300;font-stretch:normal;font-size:4.48386px;line-height:10.978px;font-family:'Fira Sans';-inkscape-font-specification:'Fira Sans Light';fill:#000000;fill-opacity:1;stroke-width:0.128161"
         x="91.140442"
         y="82.437744">Modèle</tspan></text>
    <text
       xml:space="preserve"
       style="font-size:3.3629px;line-height:8.23348px;font-family:'Fira Sans';-inkscape-font-specification:'Fira Sans';text-align:center;text-anchor:middle;fill:#000000;fill-opacity:1;stroke-width:0.128161;stroke-linecap:round;stroke-linejoin:round;stroke-dasharray:0.512643, 0.512643"
       x="16.378822"
       y="55.882221"
       id="text5"><tspan
         sodipodi:role="line"
         style="font-style:normal;font-variant:normal;font-weight:300;font-stretch:normal;font-size:3.3629px;line-height:8.23348px;font-family:'Fira Sans';-inkscape-font-specification:'Fira Sans Light';fill:#000000;fill-opacity:1;stroke-width:0.128161"
         x="16.378822"
         y="55.882221"
         id="tspan6">Action</tspan></text>
    <text
       xml:space="preserve"
       style="font-size:3.3629px;line-height:8.23348px;font-family:'Fira Sans';-inkscape-font-specification:'Fira Sans';text-align:center;text-anchor:middle;fill:#000000;fill-opacity:1;stroke-width:0.128161;stroke-linecap:round;stroke-linejoin:round;stroke-dasharray:0.512643, 0.512643"
       x="15.621058"
       y="59.82719"
       id="text7"><tspan
         sodipodi:role="line"
         style="font-style:normal;font-variant:normal;font-weight:300;font-stretch:normal;font-size:3.3629px;line-height:8.23348px;font-family:'Fira Sans';-inkscape-font-specification:'Fira Sans Light';fill:#000000;fill-opacity:1;stroke-width:0.128161"
         x="15.621058"
         y="59.82719"
         id="tspan7">utilisateur</tspan></text>
    <text
       xml:space="preserve"
       style="font-size:3.3629px;line-height:8.23348px;font-family:'Fira Sans';-inkscape-font-specification:'Fira Sans';text-align:center;text-anchor:middle;fill:#000000;fill-opacity:1;stroke-width:0.128161;stroke-linecap:round;stroke-linejoin:round;stroke-dasharray:0.512643, 0.512643"
       x="47.298595"
       y="72.345314"
       id="text8"><tspan
         sodipodi:role="line"
         style="font-style:normal;font-variant:normal;font-weight:300;font-stretch:normal;font-size:3.3629px;line-height:8.23348px;font-family:'Fira Sans';-inkscape-font-specification:'Fira Sans Light';fill:#000000;fill-opacity:1;stroke-width:0.128161"
         x="47.298595"
         y="72.345314"
         id="tspan8">Mise à jour</tspan></text>
    <text
       xml:space="preserve"
       style="font-size:3.3629px;line-height:8.23348px;font-family:'Fira Sans';-inkscape-font-specification:'Fira Sans';text-align:center;text-anchor:middle;fill:#000000;fill-opacity:1;stroke-width:0.128161;stroke-linecap:round;stroke-linejoin:round;stroke-dasharray:0.512643, 0.512643"
       x="88.544815"
       y="55.186909"
       id="text9"><tspan
         sodipodi:role="line"
         style="font-style:normal;font-variant:normal;font-weight:300;font-stretch:normal;font-size:3.3629px;line-height:8.23348px;font-family:'Fira Sans';-inkscape-font-specification:'Fira Sans Light';fill:#000000;fill-opacity:1;stroke-width:0.128161"
         x="88.544815"
         y="55.186909"
         id="tspan9">Mise à jour</tspan></text>
    <text
       xml:space="preserve"
       style="font-size:3.3629px;line-height:8.23348px;font-family:'Fira Sans';-inkscape-font-specification:'Fira Sans';text-align:center;text-anchor:middle;fill:#000000;fill-opacity:1;stroke-width:0.128161;stroke-linecap:round;stroke-linejoin:round;stroke-dasharray:0.512643, 0.512643"
       x="67.39814"
       y="75.577477"
       id="text10"><tspan
         sodipodi:role="line"
         style="font-style:normal;font-variant:normal;font-weight:300;font-stretch:normal;font-size:3.3629px;line-height:8.23348px;font-family:'Fira Sans';-inkscape-font-specification:'Fira Sans Light';fill:#000000;fill-opacity:1;stroke-width:0.128161"
         x="67.39814"
         y="75.577477"
         id="tspan10">Notification</tspan></text>
    <path
       id="XMLID_6_"
       d="m 32.792565,52.801085 c -0.434883,0.146222 -0.668851,0.617328 -0.522604,1.052285 l 0.877308,2.60861 c -3.110067,-1.18151 -6.761724,-0.256806 -8.89579,2.50826 -1.570762,2.035269 -2.030044,4.71079 -1.228423,7.156891 0.142931,0.436032 0.612214,0.673672 1.04822,0.530792 0.436032,-0.142931 0.673671,-0.612214 0.530715,-1.048197 -0.630043,-1.922561 -0.269312,-4.024967 0.964865,-5.624201 1.68601,-2.184521 4.577682,-2.907088 7.029969,-1.954982 l -2.883181,0.969696 c -0.434834,0.146247 -0.668877,0.617378 -0.522555,1.05231 0.146272,0.434909 0.617377,0.668877 1.052286,0.522605 l 4.638998,-1.560228 c 0.217455,-0.07314 0.384656,-0.227505 0.479209,-0.417891 0.09455,-0.190387 0.116533,-0.41694 0.0434,-0.634394 l -1.560126,-4.638826 c -0.146224,-0.435008 -0.617378,-0.669001 -1.052301,-0.5227 z"
       style="stroke-width:0;stroke-dasharray:none" />
    <path
       id="path12"
       d="m 31.808677,72.816983 c 0.432564,-0.152948 0.659199,-0.627625 0.506225,-1.060262 l -0.917653,-2.594692 c 3.128014,1.133141 6.764894,0.151924 8.855826,-2.645901 1.539013,-2.059382 1.956752,-4.741703 1.117297,-7.17508 -0.149675,-0.433763 -0.622587,-0.664097 -1.056324,-0.514473 -0.433764,0.149674 -0.664098,0.622586 -0.514398,1.0563 0.65978,1.91256 0.331692,4.020306 -0.877538,5.638486 -1.651932,2.210402 -4.532053,2.977723 -6.998808,2.063758 l 2.867797,-1.014288 c 0.432514,-0.152972 0.659224,-0.627676 0.506175,-1.060287 -0.152999,-0.432588 -0.627675,-0.659223 -1.060263,-0.506225 l -4.614247,1.631975 c -0.216295,0.0765 -0.381082,0.233443 -0.472672,0.425272 -0.09159,0.19183 -0.110052,0.418697 -0.03355,0.634991 l 1.631871,4.614076 c 0.152952,0.432688 0.627678,0.659347 1.06028,0.50632 z"
       style="stroke-width:0.0553866" />
    <path
       id="path13"
       d="m 89.876662,64.796855 c -0.2121,-0.406836 -0.713871,-0.564656 -1.120781,-0.352516 l -2.44034,1.272493 c 0.683229,-3.25602 -0.798368,-6.719337 -3.861797,-8.397198 -2.254877,-1.234971 -4.969274,-1.27238 -7.260863,-0.09994 -0.408483,0.209033 -0.570215,0.709577 -0.361239,1.118043 0.209035,0.408485 0.709577,0.570213 1.118007,0.361162 1.80112,-0.921497 3.934048,-0.89227 5.705834,0.07806 2.420242,1.325595 3.583915,4.069629 3.024954,6.640189 l -1.40648,-2.697198 c -0.212116,-0.406786 -0.713924,-0.564675 -1.120797,-0.352466 -0.406853,0.212158 -0.564676,0.713931 -0.352517,1.120786 l 2.263002,4.339749 c 0.106077,0.203428 0.28458,0.344576 0.48736,0.408356 0.20278,0.06378 0.429995,0.05024 0.633416,-0.05586 l 4.339598,-2.262878 c 0.406958,-0.212121 0.564797,-0.713945 0.352612,-1.120811 z"
       style="stroke-width:0.0553866" />
    <path
       id="path14"
       d="m 67.683513,64.713651 c 0.210554,0.407639 0.711721,0.567361 1.119431,0.356768 l 2.445154,-1.263221 c -0.69558,3.253403 0.772862,6.722316 3.829899,8.411795 2.250175,1.243521 4.964408,1.291227 7.260429,0.127492 0.409278,-0.207483 0.572905,-0.707404 0.365481,-1.116662 -0.207478,-0.409271 -0.707405,-0.572901 -1.116625,-0.365404 -1.804609,0.914656 -3.937411,0.877333 -5.705495,-0.09971 -2.415195,-1.334763 -3.568451,-4.083196 -2.999735,-6.651615 l 1.396232,2.702515 c 0.210576,0.407583 0.71178,0.56738 1.119453,0.356718 0.407657,-0.210612 0.567381,-0.711781 0.356769,-1.119439 L 73.50799,61.704573 c -0.105303,-0.203829 -0.283272,-0.345652 -0.485808,-0.410199 -0.202537,-0.06455 -0.4298,-0.05187 -0.633628,0.05341 l -4.348156,2.246385 c -0.407758,0.210583 -0.567503,0.711803 -0.356859,1.119468 z"
       style="stroke-width:0.0553866" />
    <path
       d="m -19.001466,85.229353 v -1.065297 c 0,-1.294381 1.04929,-2.343663 2.343659,-2.343663 h 2.1306 c 1.294383,0 2.343661,1.049282 2.343661,2.343663 v 1.065297 m -5.11344,0 v -1.278356 m 3.40896,1.278356 v -1.278356 m 0,-4.900381 c 0,0.941357 -0.763139,1.70448 -1.704481,1.70448 -0.941359,0 -1.704479,-0.763123 -1.704479,-1.70448 0,-0.941362 0.76312,-1.70448 1.704479,-1.70448 0.941342,0 1.704481,0.763118 1.704481,1.70448 z"
       stroke="#000000"
       stroke-linecap="round"
       stroke-width="0.596567"
       id="path1-4" />
    <path
       id="XMLID_9_"
       d="m 1.972428,77.785542 0.5140358,0.513994 H -8.9139181 c -0.3580187,0 -0.6482711,0.290257 -0.6482711,0.648276 0,0.358019 0.2902524,0.648271 0.6482711,0.648271 H 2.4864638 L 1.972428,80.110119 c -0.1265879,0.126583 -0.1899004,0.292498 -0.1899004,0.458371 0,0.165915 0.06327,0.33183 0.1899004,0.458413 0.2531704,0.253176 0.6636132,0.253176 0.9167837,0 l 1.6206829,-1.620678 c 0.2531705,-0.253128 0.2531705,-0.663613 0,-0.916789 L 2.8892117,76.868753 c -0.2531705,-0.25317 -0.6636133,-0.25317 -0.9167837,0 -0.2531705,0.253128 -0.2531705,0.663614 0,0.916789 z"
       style="stroke-width:0.0432181" />
    <path
       id="path15"
       d="m -7.1400327,81.902654 -0.5140358,0.513993 H 3.7463128 c 0.3580187,0 0.648271,0.290258 0.648271,0.648277 0,0.358018 -0.2902523,0.648271 -0.648271,0.648271 H -7.6540685 l 0.5140358,0.514036 c 0.1265879,0.126582 0.1899004,0.292498 0.1899004,0.45837 0,0.165916 -0.06327,0.331831 -0.1899004,0.458413 -0.2531704,0.253176 -0.6636132,0.253176 -0.9167837,0 l -1.6206829,-1.620677 c -0.2531705,-0.253128 -0.2531705,-0.663613 0,-0.916789 l 1.6206829,-1.620673 c 0.2531705,-0.25317 0.6636133,-0.25317 0.9167837,0 0.2531705,0.253123 0.2531705,0.663608 0,0.916779 z"
       style="stroke-width:0.0432181" />
  </g>
</svg>
